<?xml version="1.0" encoding="utf-8"?>
<!-- Generator: Adobe Illustrator 22.1.0, SVG Export Plug-In . SVG Version: 6.00 Build 0)  -->
<svg version="1.1" xmlns="http://www.w3.org/2000/svg" xmlns:xlink="http://www.w3.org/1999/xlink" x="0px" y="0px"
	 viewBox="0 0 1024 1024" style="enable-background:new 0 0 1024 1024;" xml:space="preserve">
<style type="text/css">
	.st0{display:none;}
	.st1{fill:#333333;}
	.st2{fill-rule:evenodd;clip-rule:evenodd;fill:none;stroke:#333333;stroke-width:64;stroke-miterlimit:10;}
</style>
<g id="图层_1" class="st0">
</g>
<g id="图层_2">
	<path class="st1" d="M306.9,905l-83.4-112.8L93.7,753.9l97.6-143.3c-11.9-18.4-22.3-37.8-31.1-58.1L0,787.8l188.7,55.6l120.2,162.5
		l151.4-222.3c-20.8-2.9-41.2-7.6-61.2-13.9L306.9,905z"/>
	<path class="st1" d="M870,240.5c-19.5-46.9-47.3-89-82.8-125.1C751.7,79.2,710.4,50.8,664.4,31C616.7,10.4,566.1,0,513.9,0
		c-52.2,0-102.8,10.4-150.5,31c-46,19.8-87.4,48.2-122.8,84.4c-35.5,36.1-63.3,78.2-82.8,125.1c-20.2,48.5-30.4,100.1-30.4,153.2
		c0,53.1,10.2,104.7,30.4,153.2c0.8,1.9,1.6,3.7,2.4,5.6c8.8,20.3,19.2,39.7,31.1,58.1c14.3,22,30.7,42.5,49.3,61.4
		c35.5,36.2,76.8,64.5,122.8,84.4c11.7,5,23.5,9.5,35.6,13.3c20,6.3,40.4,11,61.2,13.9c17.7,2.5,35.6,3.8,53.7,3.8
		c10.4,0,20.7-0.4,31-1.2c21.6-1.7,42.8-5.3,63.6-10.6c19-4.9,37.6-11.2,55.9-19.1c46-19.8,87.4-48.2,122.8-84.4
		c14.9-15.2,28.5-31.5,40.7-48.7c12.4-17.5,23.3-36,32.7-55.5c3.3-6.9,6.5-13.8,9.4-20.9c20.2-48.5,30.4-100.1,30.4-153.2
		C900.4,340.6,890.1,289,870,240.5z M792,571.4c-48.2,78.2-127.3,134.7-219.7,151.7c-19,3.5-38.5,5.3-58.4,5.3c-3,0-6-0.1-9-0.1
		c-2.3-0.1-4.6-0.1-6.8-0.3c-22-1.1-43.4-4.4-64.1-9.6c-88.4-22.6-162.7-81.9-206.4-161c-11.1-20.1-20.2-41.5-27.1-63.9
		c-9.7-31.5-14.9-65-14.9-99.7C185.6,209.2,332.9,59,513.9,59c181,0,328.3,150.1,328.3,334.7c0,41.3-7.4,80.8-20.9,117.4
		C813.6,532.3,803.7,552.5,792,571.4z"/>
	<path class="st2" d="M513.9,218.3c95,0,172.1,78.5,172.1,175.3c0,96.8-77,175.3-172.1,175.3c-95,0-172.1-78.5-172.1-175.3
		C341.8,296.9,418.9,218.3,513.9,218.3z"/>
	<path class="st1" d="M715.3,905l83.4-112.8l129.8-38.2l-97.6-143.3c11.9-18.4,22.3-37.8,31.1-58.1l160.2,235.3l-188.7,55.6
		l-120.2,162.5L562,783.6c20.8-2.9,41.2-7.6,61.2-13.9L715.3,905z"/>
</g>
</svg>
