<?xml version="1.0" encoding="utf-8"?>
<!-- Generator: Adobe Illustrator 22.1.0, SVG Export Plug-In . SVG Version: 6.00 Build 0)  -->
<svg version="1.1" xmlns="http://www.w3.org/2000/svg" xmlns:xlink="http://www.w3.org/1999/xlink" x="0px" y="0px"
	 viewBox="0 0 1024 1024" style="enable-background:new 0 0 1024 1024;" xml:space="preserve">
<style type="text/css">
	.st0{display:none;}
	.st1{display:inline;fill:#333333;}
	.st2{display:inline;fill-rule:evenodd;clip-rule:evenodd;fill:none;stroke:#333333;stroke-width:64;stroke-miterlimit:10;}
	.st3{fill-rule:evenodd;clip-rule:evenodd;fill:#333333;}
	.st4{fill:#333333;}
</style>
<g id="图层_1">
</g>
<g id="图层_2" class="st0">
	<path class="st1" d="M306.9,905l-83.4-112.8L93.7,753.9l97.6-143.3c-11.9-18.4-22.3-37.8-31.1-58.1L0,787.8l188.7,55.6l120.2,162.5
		l151.4-222.3c-20.8-2.9-41.2-7.6-61.2-13.9L306.9,905z"/>
	<path class="st1" d="M870,240.5c-19.5-46.9-47.3-89-82.8-125.1C751.7,79.2,710.4,50.8,664.4,31C616.7,10.4,566.1,0,513.9,0
		c-52.2,0-102.8,10.4-150.5,31c-46,19.8-87.4,48.2-122.8,84.4c-35.5,36.1-63.3,78.2-82.8,125.1c-20.2,48.5-30.4,100.1-30.4,153.2
		c0,53.1,10.2,104.7,30.4,153.2c0.8,1.9,1.6,3.7,2.4,5.6c8.8,20.3,19.2,39.7,31.1,58.1c14.3,22,30.7,42.5,49.3,61.4
		c35.5,36.2,76.8,64.5,122.8,84.4c11.7,5,23.5,9.5,35.6,13.3c20,6.3,40.4,11,61.2,13.9c17.7,2.5,35.6,3.8,53.7,3.8
		c10.4,0,20.7-0.4,31-1.2c21.6-1.7,42.8-5.3,63.6-10.6c19-4.9,37.6-11.2,55.9-19.1c46-19.8,87.4-48.2,122.8-84.4
		c14.9-15.2,28.5-31.5,40.7-48.7c12.4-17.5,23.3-36,32.7-55.5c3.3-6.9,6.5-13.8,9.4-20.9c20.2-48.5,30.4-100.1,30.4-153.2
		C900.4,340.6,890.1,289,870,240.5z M792,571.4c-48.2,78.2-127.3,134.7-219.7,151.7c-19,3.5-38.5,5.3-58.4,5.3c-3,0-6-0.1-9-0.1
		c-2.3-0.1-4.6-0.1-6.8-0.3c-22-1.1-43.4-4.4-64.1-9.6c-88.4-22.6-162.7-81.9-206.4-161c-11.1-20.1-20.2-41.5-27.1-63.9
		c-9.7-31.5-14.9-65-14.9-99.7C185.6,209.2,332.9,59,513.9,59c181,0,328.3,150.1,328.3,334.7c0,41.3-7.4,80.8-20.9,117.4
		C813.6,532.3,803.7,552.5,792,571.4z"/>
	<path class="st2" d="M513.9,218.3c95,0,172.1,78.5,172.1,175.3c0,96.8-77,175.3-172.1,175.3c-95,0-172.1-78.5-172.1-175.3
		C341.8,296.9,418.9,218.3,513.9,218.3z"/>
	<path class="st1" d="M715.3,905l83.4-112.8l129.8-38.2l-97.6-143.3c11.9-18.4,22.3-37.8,31.1-58.1l160.2,235.3l-188.7,55.6
		l-120.2,162.5L562,783.6c20.8-2.9,41.2-7.6,61.2-13.9L715.3,905z"/>
</g>
<g id="图层_3">
	<path class="st3" d="M34.1,895.5h954.8c18.8,0,34.1,14.3,34.1,32c0,17.7-15.3,32-34.1,32H34.1c-18.8,0-34.1-14.3-34.1-32
		C0,909.8,15.3,895.5,34.1,895.5z"/>
	<g>
		<path class="st4" d="M652.1,127.5v640H370.9v-640H652.1 M682,63.5H341c-18.8,0-34.1,14.3-34.1,32v704c0,17.7,15.3,32,34.1,32h341
			c18.8,0,34.1-14.3,34.1-32v-704C716.1,77.8,700.8,63.5,682,63.5L682,63.5z"/>
	</g>
	<g>
		<path class="st4" d="M272.8,255.5c11,0,21.1,3.8,28.5,10.8c4.5,4.2,9.8,11.3,9.8,21.2v448c0,10-5.3,17-9.8,21.2
			c-7.4,7-17.5,10.8-28.5,10.8H102.3c-11,0-21.1-3.8-28.5-10.8c-4.5-4.2-9.8-11.2-9.8-21.2v-448c0-10,5.3-17,9.8-21.2
			c7.4-7,17.5-10.8,28.5-10.8H272.8 M272.8,191.5H102.3c-56.5,0-102.3,43-102.3,96v448c0,53,45.8,96,102.3,96h170.5
			c56.5,0,102.3-43,102.3-96v-448C375.1,234.5,329.3,191.5,272.8,191.5L272.8,191.5z"/>
	</g>
	<g>
		<path class="st4" d="M921.7,383.2c11,0,21.5,2.4,29.5,6.9c5.3,2.9,7.9,5.8,8.7,7.1v356.3c-0.9,1.3-3.4,4.2-8.7,7.1
			c-8.1,4.4-18.6,6.9-29.5,6.9H751.2c-11,0-21.5-2.4-29.5-6.9c-5.3-2.9-7.9-5.8-8.7-7.1V397.2c0.9-1.3,3.4-4.2,8.7-7.1
			c8.1-4.4,18.6-6.9,29.6-6.9H921.7 M921.7,319.2H751.2c-56.5,0-102.3,34.4-102.3,76.8v358.6c0,42.4,45.8,76.8,102.3,76.8h170.5
			c56.5,0,102.3-34.4,102.3-76.8V396.1C1024,353.6,978.2,319.2,921.7,319.2L921.7,319.2z"/>
	</g>
</g>
</svg>
